# xmcd
#
# Track frame offsets:
#	150
#	14842
#	32362
#	51220
#	66860
#	83377
#	103767
#	125092
#	139195
#	161715
#	180907
#	199387
#	221255
#	238217
#	257410
#	275925
#
# Disc length: 4002 seconds
#
# Revision: 0
# Processed by: cddbd v1.5.1PL0 Copyright (c) Steve Scherf et al.
# Submitted via: dBpowerAMP V4.0
#
DISCID=e90fa010
DTITLE=Slowburner - Deepest Blue
DYEAR=1998
DGENRE=
TTITLE0=Deepest Blue
TTITLE1=Name For Love
TTITLE2=Play it Again
TTITLE3=Stealers of Love
TTITLE4=Sister Sister
TTITLE5=Sympathy
TTITLE6=Hard to Give it up (Live)
TTITLE7=Breakdown (Live)
TTITLE8=One Sky
TTITLE9=Let Your Hair Down
TTITLE10=The Way it Ought to Be
TTITLE11=Black Soul
TTITLE12=Take it From Here
TTITLE13=Saviour
TTITLE14=Love Like a Train
TTITLE15=Buried Alive
EXTD=
EXTT0=
EXTT1=
EXTT2=
EXTT3=
EXTT4=
EXTT5=
EXTT6=
EXTT7=
EXTT8=
EXTT9=
EXTT10=
EXTT11=
EXTT12=
EXTT13=
EXTT14=
EXTT15=
PLAYORDER=
